<?xml version="1.0" encoding="UTF-8"?>
<svg width="15px" height="15px" viewBox="0 0 15 15" version="1.1" xmlns="http://www.w3.org/2000/svg" xmlns:xlink="http://www.w3.org/1999/xlink">
    <!-- Generator: Sketch 43.2 (39069) - http://www.bohemiancoding.com/sketch -->
    <title>Page 1</title>
    <desc>Created with Sketch.</desc>
    <defs>
        <polygon id="path-1" points="0 7.25945523 0 0 14.558141 0 14.558141 7.25945523 14.558141 14.5189105 0 14.5189105 0 7.25945523"></polygon>
    </defs>
    <g id="Step-3---Viewing-site-stages" stroke="none" stroke-width="1" fill="none" fill-rule="evenodd">
        <g id="iPad-Landscape-Copy-25" transform="translate(-663.000000, -33.000000)">
            <g id="Page-1" transform="translate(663.000000, 33.000000)">
                <mask id="mask-2" fill="white">
                    <use xlink:href="#path-1"></use>
                </mask>
                <g id="Clip-2"></g>
                <path d="M13.4813554,-2.14721844e-05 L13.9551411,-2.14721844e-05 C13.979261,0.0320150268 13.997351,0.0832476586 14.0284917,0.092953086 C14.2507402,0.162265297 14.3930482,0.304368213 14.4651067,0.52462988 C14.4756161,0.556838156 14.5261389,0.576034289 14.558141,0.601199689 L14.558141,1.11653211 C14.455631,1.24364744 14.3639319,1.38149887 14.2490604,1.49628916 C12.395051,3.34903806 10.5380697,5.19878085 8.68203595,7.04946842 C8.4751639,7.25577317 8.47464705,7.25813511 8.66760702,7.45065471 C10.2299367,9.00919174 11.7926972,10.5672993 13.3556299,12.1252781 C13.6641936,12.4328456 13.9772367,12.7360758 14.2812348,13.0481096 C14.3846062,13.1542251 14.4664419,13.2811687 14.558141,13.3986215 L14.558141,13.913954 C14.5215733,13.951788 14.4698015,13.9833091 14.4509362,14.0284866 C14.3174148,14.3482933 14.0501135,14.4742062 13.7335386,14.5115249 C13.4745932,14.5420154 13.2643616,14.4123663 13.087295,14.2411042 C12.7383734,13.9036044 12.3981522,13.5570863 12.0544853,13.2141755 C10.527991,11.690767 8.99981691,10.1690332 7.4778451,8.6411585 C7.32799962,8.49072438 7.23057206,8.48192078 7.08150187,8.63909717 C6.73779191,9.0015047 6.37866239,9.34943997 6.02474451,9.70218502 C4.51250684,11.2094465 3.00263811,12.7191128 1.48269067,14.2186013 C1.34839397,14.3510847 1.15754449,14.465102 0.975309302,14.5026354 C0.597400637,14.5804935 0.274580322,14.3728146 0.101734701,14.0120819 C0.0826971322,13.9722724 0.0346294241,13.946334 0,13.913954 L0,13.4415659 C0.0975567731,13.3049169 0.178057263,13.1513908 0.295168462,13.0341527 C2.14706737,11.1797719 4.00353184,9.32985734 5.85930717,7.47934155 C6.083537,7.25577317 6.08129728,7.25980994 5.87576045,7.04787948 C3.93108571,5.04284985 1.83876212,3.18215625 0,1.07358774 L0,0.601199689 C0.0345432812,0.569292023 0.087262703,0.543568346 0.100614844,0.504446026 C0.170002907,0.30119033 0.305462532,0.172743723 0.506175363,0.100897794 C0.545499572,0.0868120412 0.571083998,0.034591689 0.602999922,-2.14721844e-05 L1.07678558,-2.14721844e-05 C1.21362349,0.0973763559 1.36730232,0.177939992 1.48480117,0.294619841 C3.34897542,2.14608041 5.2084549,4.00222191 7.06918344,5.85711802 C7.27536634,6.06260683 7.27945813,6.06076022 7.47504546,5.87232033 C9.49156334,3.92951709 11.3618537,1.83804045 13.4813554,-2.14721844e-05" id="Fill-1" fill="#FFFFFF" mask="url(#mask-2)"></path>
            </g>
        </g>
    </g>
</svg>