<svg id="Layer_1" data-name="Layer 1" xmlns="http://www.w3.org/2000/svg" viewBox="0 0 138.37 115.35"><defs><style>.cls-1,.cls-2{fill:none;stroke:#000;stroke-linecap:round;stroke-linejoin:round;}.cls-1{stroke-width:4px;}.cls-2{stroke-width:5px;}</style></defs><title>sites-icon</title><path d="M86.83,9.94c9.86,6.23,13.6,15.36,13,26.33-.43,8.21-3.13,16-6.45,23.47C88.09,71.72,80.64,82.45,72.85,93a17,17,0,0,1-1.9,1.69c-6.19-9.74-12.55-19-18.09-28.73A71,71,0,0,1,43.79,40c-1.51-11.48,1-21.88,11-29.2C64,4.11,77.36,3.95,86.83,9.94ZM71.77,49.29c8.09.72,16.35-7.3,16.33-16,0-9-8.3-16.13-16.3-16.07-9.83.08-16.86,7.83-16.7,15.89C55.29,42.25,61.67,49.34,71.77,49.29Z" transform="translate(-2.54 -3.61)"/><path class="cls-1" d="M70.95,94.67c-6.19-9.74-12.55-19-18.09-28.73A71,71,0,0,1,43.79,40c-1.51-11.48,1-21.88,11-29.2,9.19-6.71,22.54-6.87,32-.88,9.86,6.23,13.6,15.36,13,26.33-.43,8.21-3.13,16-6.45,23.47C88.09,71.72,80.64,82.45,72.85,93A17,17,0,0,1,70.95,94.67Z" transform="translate(-2.54 -3.61)"/><path class="cls-1" d="M71.77,49.29c8.09.72,16.35-7.3,16.33-16,0-9-8.3-16.13-16.3-16.07-9.83.08-16.86,7.83-16.7,15.89C55.29,42.25,61.67,49.34,71.77,49.29Z" transform="translate(-2.54 -3.61)"/><line class="cls-2" x1="57.07" y1="73.48" x2="24.97" y2="73.48"/><line class="cls-2" x1="82.68" y1="73.48" x2="113.25" y2="73.48"/><line class="cls-2" x1="24.97" y1="73.48" x2="2.5" y2="112.85"/><line class="cls-2" x1="113.25" y1="73.48" x2="135.72" y2="112.85"/><line class="cls-2" x1="2.5" y1="112.85" x2="135.87" y2="112.85"/></svg>